<mxfile host="app.diagrams.net" modified="2023-10-21T10:51:20.700Z" agent="Mozilla/5.0 (Macintosh; Intel Mac OS X 10_15_7) AppleWebKit/605.1.15 (KHTML, like Gecko) Version/17.0 Safari/605.1.15" etag="iVpH2P0bPOppv3swjIzL" version="22.0.6" type="device">
  <diagram name="Page-1" id="38QwZTrRt14t735NKN4m">
    <mxGraphModel dx="1710" dy="1042" grid="1" gridSize="10" guides="1" tooltips="1" connect="1" arrows="1" fold="1" page="1" pageScale="1" pageWidth="827" pageHeight="1169" math="0" shadow="0">
      <root>
        <mxCell id="0" />
        <mxCell id="1" parent="0" />
        <mxCell id="NQqdmti2_ZRtqbnhM-zB-1" value="" style="rounded=0;whiteSpace=wrap;html=1;fillColor=none;" vertex="1" parent="1">
          <mxGeometry x="220" y="70" width="750" height="600" as="geometry" />
        </mxCell>
        <mxCell id="NQqdmti2_ZRtqbnhM-zB-2" value="Input Key Size" style="ellipse;whiteSpace=wrap;html=1;" vertex="1" parent="1">
          <mxGeometry x="260" y="140" width="120" height="60" as="geometry" />
        </mxCell>
        <mxCell id="NQqdmti2_ZRtqbnhM-zB-22" value="" style="edgeStyle=orthogonalEdgeStyle;rounded=0;orthogonalLoop=1;jettySize=auto;html=1;dashed=1;startArrow=open;startFill=0;endArrow=none;endFill=0;" edge="1" parent="1" source="NQqdmti2_ZRtqbnhM-zB-3" target="NQqdmti2_ZRtqbnhM-zB-6">
          <mxGeometry relative="1" as="geometry">
            <Array as="points">
              <mxPoint x="450" y="260" />
            </Array>
          </mxGeometry>
        </mxCell>
        <mxCell id="NQqdmti2_ZRtqbnhM-zB-3" value="Input Private key" style="ellipse;whiteSpace=wrap;html=1;" vertex="1" parent="1">
          <mxGeometry x="260" y="230" width="120" height="60" as="geometry" />
        </mxCell>
        <mxCell id="NQqdmti2_ZRtqbnhM-zB-4" value="Input message" style="ellipse;whiteSpace=wrap;html=1;" vertex="1" parent="1">
          <mxGeometry x="260" y="310" width="120" height="60" as="geometry" />
        </mxCell>
        <mxCell id="NQqdmti2_ZRtqbnhM-zB-13" value="" style="edgeStyle=orthogonalEdgeStyle;rounded=0;orthogonalLoop=1;jettySize=auto;html=1;dashed=1;strokeWidth=1;endArrow=open;endFill=0;" edge="1" parent="1" source="NQqdmti2_ZRtqbnhM-zB-5" target="NQqdmti2_ZRtqbnhM-zB-2">
          <mxGeometry relative="1" as="geometry" />
        </mxCell>
        <mxCell id="NQqdmti2_ZRtqbnhM-zB-27" style="edgeStyle=orthogonalEdgeStyle;rounded=0;orthogonalLoop=1;jettySize=auto;html=1;endArrow=open;endFill=0;" edge="1" parent="1" source="NQqdmti2_ZRtqbnhM-zB-5" target="NQqdmti2_ZRtqbnhM-zB-26">
          <mxGeometry relative="1" as="geometry" />
        </mxCell>
        <mxCell id="NQqdmti2_ZRtqbnhM-zB-5" value="Generate Keys" style="ellipse;whiteSpace=wrap;html=1;" vertex="1" parent="1">
          <mxGeometry x="450" y="140" width="120" height="60" as="geometry" />
        </mxCell>
        <mxCell id="NQqdmti2_ZRtqbnhM-zB-15" value="" style="edgeStyle=orthogonalEdgeStyle;rounded=0;orthogonalLoop=1;jettySize=auto;html=1;dashed=1;endArrow=open;endFill=0;" edge="1" parent="1" source="NQqdmti2_ZRtqbnhM-zB-6" target="NQqdmti2_ZRtqbnhM-zB-4">
          <mxGeometry relative="1" as="geometry">
            <Array as="points">
              <mxPoint x="450" y="340" />
            </Array>
          </mxGeometry>
        </mxCell>
        <mxCell id="NQqdmti2_ZRtqbnhM-zB-35" style="edgeStyle=orthogonalEdgeStyle;rounded=0;orthogonalLoop=1;jettySize=auto;html=1;entryX=0.5;entryY=0;entryDx=0;entryDy=0;endArrow=none;endFill=0;dashed=1;startArrow=open;startFill=0;" edge="1" parent="1" source="NQqdmti2_ZRtqbnhM-zB-6" target="NQqdmti2_ZRtqbnhM-zB-7">
          <mxGeometry relative="1" as="geometry" />
        </mxCell>
        <mxCell id="NQqdmti2_ZRtqbnhM-zB-6" value="Create Signature" style="ellipse;whiteSpace=wrap;html=1;" vertex="1" parent="1">
          <mxGeometry x="450" y="270" width="120" height="60" as="geometry" />
        </mxCell>
        <mxCell id="NQqdmti2_ZRtqbnhM-zB-43" style="edgeStyle=orthogonalEdgeStyle;rounded=0;orthogonalLoop=1;jettySize=auto;html=1;entryX=0.95;entryY=0.267;entryDx=0;entryDy=0;dashed=1;endArrow=open;endFill=0;entryPerimeter=0;" edge="1" parent="1" source="NQqdmti2_ZRtqbnhM-zB-7" target="NQqdmti2_ZRtqbnhM-zB-11">
          <mxGeometry relative="1" as="geometry">
            <Array as="points">
              <mxPoint x="610" y="536" />
            </Array>
          </mxGeometry>
        </mxCell>
        <mxCell id="NQqdmti2_ZRtqbnhM-zB-7" value="Select Scheme" style="ellipse;whiteSpace=wrap;html=1;" vertex="1" parent="1">
          <mxGeometry x="570" y="380" width="120" height="60" as="geometry" />
        </mxCell>
        <mxCell id="NQqdmti2_ZRtqbnhM-zB-8" value="Input public key" style="ellipse;whiteSpace=wrap;html=1;" vertex="1" parent="1">
          <mxGeometry x="260" y="450" width="120" height="60" as="geometry" />
        </mxCell>
        <mxCell id="NQqdmti2_ZRtqbnhM-zB-9" value="Input message" style="ellipse;whiteSpace=wrap;html=1;" vertex="1" parent="1">
          <mxGeometry x="260" y="520" width="120" height="60" as="geometry" />
        </mxCell>
        <mxCell id="NQqdmti2_ZRtqbnhM-zB-10" value="Input Signature" style="ellipse;whiteSpace=wrap;html=1;" vertex="1" parent="1">
          <mxGeometry x="260" y="590" width="120" height="60" as="geometry" />
        </mxCell>
        <mxCell id="NQqdmti2_ZRtqbnhM-zB-23" value="" style="edgeStyle=orthogonalEdgeStyle;rounded=0;orthogonalLoop=1;jettySize=auto;html=1;dashed=1;endArrow=open;endFill=0;" edge="1" parent="1" source="NQqdmti2_ZRtqbnhM-zB-11" target="NQqdmti2_ZRtqbnhM-zB-9">
          <mxGeometry relative="1" as="geometry" />
        </mxCell>
        <mxCell id="NQqdmti2_ZRtqbnhM-zB-24" style="edgeStyle=orthogonalEdgeStyle;rounded=0;orthogonalLoop=1;jettySize=auto;html=1;entryX=1;entryY=0.5;entryDx=0;entryDy=0;startArrow=none;startFill=0;dashed=1;endArrow=open;endFill=0;" edge="1" parent="1" source="NQqdmti2_ZRtqbnhM-zB-11" target="NQqdmti2_ZRtqbnhM-zB-8">
          <mxGeometry relative="1" as="geometry">
            <Array as="points">
              <mxPoint x="530" y="480" />
            </Array>
          </mxGeometry>
        </mxCell>
        <mxCell id="NQqdmti2_ZRtqbnhM-zB-25" style="edgeStyle=orthogonalEdgeStyle;rounded=0;orthogonalLoop=1;jettySize=auto;html=1;endArrow=open;endFill=0;dashed=1;" edge="1" parent="1" source="NQqdmti2_ZRtqbnhM-zB-11" target="NQqdmti2_ZRtqbnhM-zB-10">
          <mxGeometry relative="1" as="geometry">
            <Array as="points">
              <mxPoint x="530" y="620" />
            </Array>
          </mxGeometry>
        </mxCell>
        <mxCell id="NQqdmti2_ZRtqbnhM-zB-45" style="edgeStyle=orthogonalEdgeStyle;rounded=0;orthogonalLoop=1;jettySize=auto;html=1;entryX=0;entryY=0.5;entryDx=0;entryDy=0;endArrow=open;endFill=0;" edge="1" parent="1" source="NQqdmti2_ZRtqbnhM-zB-11" target="NQqdmti2_ZRtqbnhM-zB-44">
          <mxGeometry relative="1" as="geometry" />
        </mxCell>
        <mxCell id="NQqdmti2_ZRtqbnhM-zB-11" value="Verify signature-message pairing" style="ellipse;whiteSpace=wrap;html=1;" vertex="1" parent="1">
          <mxGeometry x="470" y="520" width="120" height="60" as="geometry" />
        </mxCell>
        <mxCell id="NQqdmti2_ZRtqbnhM-zB-26" value="Export" style="ellipse;whiteSpace=wrap;html=1;" vertex="1" parent="1">
          <mxGeometry x="640" y="140" width="120" height="60" as="geometry" />
        </mxCell>
        <mxCell id="NQqdmti2_ZRtqbnhM-zB-33" style="edgeStyle=orthogonalEdgeStyle;rounded=0;orthogonalLoop=1;jettySize=auto;html=1;entryX=0.5;entryY=0;entryDx=0;entryDy=0;endArrow=block;endFill=0;" edge="1" parent="1" source="NQqdmti2_ZRtqbnhM-zB-28" target="NQqdmti2_ZRtqbnhM-zB-26">
          <mxGeometry relative="1" as="geometry" />
        </mxCell>
        <mxCell id="NQqdmti2_ZRtqbnhM-zB-28" value="Export to file" style="ellipse;whiteSpace=wrap;html=1;" vertex="1" parent="1">
          <mxGeometry x="800" y="80" width="120" height="60" as="geometry" />
        </mxCell>
        <mxCell id="NQqdmti2_ZRtqbnhM-zB-34" style="edgeStyle=orthogonalEdgeStyle;rounded=0;orthogonalLoop=1;jettySize=auto;html=1;entryX=0.5;entryY=1;entryDx=0;entryDy=0;endArrow=block;endFill=0;" edge="1" parent="1" source="NQqdmti2_ZRtqbnhM-zB-29" target="NQqdmti2_ZRtqbnhM-zB-26">
          <mxGeometry relative="1" as="geometry" />
        </mxCell>
        <mxCell id="NQqdmti2_ZRtqbnhM-zB-29" value="Copy to clipboard" style="ellipse;whiteSpace=wrap;html=1;" vertex="1" parent="1">
          <mxGeometry x="800" y="190" width="120" height="60" as="geometry" />
        </mxCell>
        <mxCell id="NQqdmti2_ZRtqbnhM-zB-32" style="edgeStyle=orthogonalEdgeStyle;rounded=0;orthogonalLoop=1;jettySize=auto;html=1;exitX=1;exitY=0.5;exitDx=0;exitDy=0;entryX=0.283;entryY=0.967;entryDx=0;entryDy=0;endArrow=open;endFill=0;entryPerimeter=0;" edge="1" parent="1" source="NQqdmti2_ZRtqbnhM-zB-6" target="NQqdmti2_ZRtqbnhM-zB-26">
          <mxGeometry relative="1" as="geometry" />
        </mxCell>
        <mxCell id="NQqdmti2_ZRtqbnhM-zB-36" value="PKCS#1 v1.5 Signature." style="ellipse;whiteSpace=wrap;html=1;" vertex="1" parent="1">
          <mxGeometry x="800" y="290" width="120" height="60" as="geometry" />
        </mxCell>
        <mxCell id="NQqdmti2_ZRtqbnhM-zB-41" style="edgeStyle=orthogonalEdgeStyle;rounded=0;orthogonalLoop=1;jettySize=auto;html=1;entryX=1;entryY=1;entryDx=0;entryDy=0;dashed=1;dashPattern=1 2;endArrow=open;endFill=0;" edge="1" parent="1" source="NQqdmti2_ZRtqbnhM-zB-37" target="NQqdmti2_ZRtqbnhM-zB-7">
          <mxGeometry relative="1" as="geometry">
            <Array as="points">
              <mxPoint x="810" y="431" />
            </Array>
          </mxGeometry>
        </mxCell>
        <mxCell id="NQqdmti2_ZRtqbnhM-zB-37" value="ANSI X9.31 rDSA" style="ellipse;whiteSpace=wrap;html=1;" vertex="1" parent="1">
          <mxGeometry x="810" y="370" width="120" height="60" as="geometry" />
        </mxCell>
        <mxCell id="NQqdmti2_ZRtqbnhM-zB-42" style="edgeStyle=orthogonalEdgeStyle;rounded=0;orthogonalLoop=1;jettySize=auto;html=1;entryX=0.5;entryY=1;entryDx=0;entryDy=0;dashed=1;dashPattern=1 2;endArrow=open;endFill=0;" edge="1" parent="1" source="NQqdmti2_ZRtqbnhM-zB-38" target="NQqdmti2_ZRtqbnhM-zB-7">
          <mxGeometry relative="1" as="geometry" />
        </mxCell>
        <mxCell id="NQqdmti2_ZRtqbnhM-zB-38" value="ISO/IEC 9796-2 Scheme 1" style="ellipse;whiteSpace=wrap;html=1;" vertex="1" parent="1">
          <mxGeometry x="800" y="470" width="120" height="60" as="geometry" />
        </mxCell>
        <mxCell id="NQqdmti2_ZRtqbnhM-zB-39" style="edgeStyle=orthogonalEdgeStyle;rounded=0;orthogonalLoop=1;jettySize=auto;html=1;dashed=1;dashPattern=1 2;endArrow=open;endFill=0;entryX=0.767;entryY=0.05;entryDx=0;entryDy=0;entryPerimeter=0;exitX=0;exitY=1;exitDx=0;exitDy=0;" edge="1" parent="1" source="NQqdmti2_ZRtqbnhM-zB-36" target="NQqdmti2_ZRtqbnhM-zB-7">
          <mxGeometry relative="1" as="geometry">
            <mxPoint x="660" y="380" as="targetPoint" />
            <Array as="points">
              <mxPoint x="818" y="350" />
              <mxPoint x="662" y="350" />
            </Array>
          </mxGeometry>
        </mxCell>
        <mxCell id="NQqdmti2_ZRtqbnhM-zB-44" value="Notify of verification decision" style="ellipse;whiteSpace=wrap;html=1;" vertex="1" parent="1">
          <mxGeometry x="670" y="570" width="120" height="60" as="geometry" />
        </mxCell>
        <mxCell id="NQqdmti2_ZRtqbnhM-zB-63" style="edgeStyle=orthogonalEdgeStyle;rounded=0;orthogonalLoop=1;jettySize=auto;html=1;entryX=0;entryY=0.5;entryDx=0;entryDy=0;endArrow=open;endFill=0;" edge="1" parent="1" target="NQqdmti2_ZRtqbnhM-zB-7">
          <mxGeometry relative="1" as="geometry">
            <mxPoint x="110" y="270" as="sourcePoint" />
            <Array as="points">
              <mxPoint x="110" y="410" />
            </Array>
          </mxGeometry>
        </mxCell>
        <mxCell id="NQqdmti2_ZRtqbnhM-zB-46" value="Signer" style="shape=umlActor;verticalLabelPosition=bottom;verticalAlign=top;html=1;outlineConnect=0;" vertex="1" parent="1">
          <mxGeometry x="70" y="240" width="30" height="60" as="geometry" />
        </mxCell>
        <mxCell id="NQqdmti2_ZRtqbnhM-zB-47" value="Verifier" style="shape=umlActor;verticalLabelPosition=bottom;verticalAlign=top;html=1;outlineConnect=0;" vertex="1" parent="1">
          <mxGeometry x="70" y="510" width="30" height="60" as="geometry" />
        </mxCell>
        <mxCell id="NQqdmti2_ZRtqbnhM-zB-50" value="" style="endArrow=open;html=1;rounded=0;entryX=0;entryY=0.5;entryDx=0;entryDy=0;endFill=0;" edge="1" parent="1" target="NQqdmti2_ZRtqbnhM-zB-2">
          <mxGeometry width="50" height="50" relative="1" as="geometry">
            <mxPoint x="110" y="270" as="sourcePoint" />
            <mxPoint x="150" y="210" as="targetPoint" />
          </mxGeometry>
        </mxCell>
        <mxCell id="NQqdmti2_ZRtqbnhM-zB-51" value="" style="endArrow=open;html=1;rounded=0;endFill=0;" edge="1" parent="1">
          <mxGeometry width="50" height="50" relative="1" as="geometry">
            <mxPoint x="110" y="270" as="sourcePoint" />
            <mxPoint x="260" y="270" as="targetPoint" />
          </mxGeometry>
        </mxCell>
        <mxCell id="NQqdmti2_ZRtqbnhM-zB-52" value="" style="endArrow=open;html=1;rounded=0;entryX=0;entryY=0.5;entryDx=0;entryDy=0;endFill=0;" edge="1" parent="1" target="NQqdmti2_ZRtqbnhM-zB-4">
          <mxGeometry width="50" height="50" relative="1" as="geometry">
            <mxPoint x="110" y="270" as="sourcePoint" />
            <mxPoint x="270" y="280" as="targetPoint" />
          </mxGeometry>
        </mxCell>
        <mxCell id="NQqdmti2_ZRtqbnhM-zB-53" value="" style="endArrow=open;html=1;rounded=0;entryX=0;entryY=0.5;entryDx=0;entryDy=0;endFill=0;" edge="1" parent="1" target="NQqdmti2_ZRtqbnhM-zB-8">
          <mxGeometry width="50" height="50" relative="1" as="geometry">
            <mxPoint x="110" y="550" as="sourcePoint" />
            <mxPoint x="260" y="450" as="targetPoint" />
          </mxGeometry>
        </mxCell>
        <mxCell id="NQqdmti2_ZRtqbnhM-zB-54" value="" style="endArrow=open;html=1;rounded=0;endFill=0;" edge="1" parent="1">
          <mxGeometry width="50" height="50" relative="1" as="geometry">
            <mxPoint x="110" y="550" as="sourcePoint" />
            <mxPoint x="260" y="550" as="targetPoint" />
          </mxGeometry>
        </mxCell>
        <mxCell id="NQqdmti2_ZRtqbnhM-zB-55" value="" style="endArrow=open;html=1;rounded=0;entryX=0;entryY=0.5;entryDx=0;entryDy=0;endFill=0;" edge="1" parent="1">
          <mxGeometry width="50" height="50" relative="1" as="geometry">
            <mxPoint x="110" y="550" as="sourcePoint" />
            <mxPoint x="260" y="620" as="targetPoint" />
          </mxGeometry>
        </mxCell>
        <mxCell id="NQqdmti2_ZRtqbnhM-zB-64" style="edgeStyle=orthogonalEdgeStyle;rounded=0;orthogonalLoop=1;jettySize=auto;html=1;entryX=0.025;entryY=0.717;entryDx=0;entryDy=0;entryPerimeter=0;endArrow=open;endFill=0;" edge="1" parent="1" target="NQqdmti2_ZRtqbnhM-zB-7">
          <mxGeometry relative="1" as="geometry">
            <mxPoint x="110" y="550" as="sourcePoint" />
            <Array as="points">
              <mxPoint x="110" y="424" />
            </Array>
          </mxGeometry>
        </mxCell>
        <mxCell id="NQqdmti2_ZRtqbnhM-zB-65" value="&amp;lt;&amp;lt;include&amp;gt;&amp;gt;" style="text;html=1;strokeColor=none;fillColor=none;align=center;verticalAlign=middle;whiteSpace=wrap;rounded=0;" vertex="1" parent="1">
          <mxGeometry x="390" y="230" width="60" height="30" as="geometry" />
        </mxCell>
        <mxCell id="NQqdmti2_ZRtqbnhM-zB-66" value="&amp;lt;&amp;lt;include&amp;gt;&amp;gt;" style="text;html=1;strokeColor=none;fillColor=none;align=center;verticalAlign=middle;whiteSpace=wrap;rounded=0;" vertex="1" parent="1">
          <mxGeometry x="390" y="140" width="60" height="30" as="geometry" />
        </mxCell>
        <mxCell id="NQqdmti2_ZRtqbnhM-zB-67" value="&amp;lt;&amp;lt;include&amp;gt;&amp;gt;" style="text;html=1;strokeColor=none;fillColor=none;align=center;verticalAlign=middle;whiteSpace=wrap;rounded=0;" vertex="1" parent="1">
          <mxGeometry x="384" y="310" width="60" height="30" as="geometry" />
        </mxCell>
        <mxCell id="NQqdmti2_ZRtqbnhM-zB-69" value="&amp;lt;&amp;lt;include&amp;gt;&amp;gt;" style="text;html=1;strokeColor=none;fillColor=none;align=center;verticalAlign=middle;whiteSpace=wrap;rounded=0;" vertex="1" parent="1">
          <mxGeometry x="400" y="450" width="60" height="30" as="geometry" />
        </mxCell>
        <mxCell id="NQqdmti2_ZRtqbnhM-zB-70" value="&amp;lt;&amp;lt;include&amp;gt;&amp;gt;" style="text;html=1;strokeColor=none;fillColor=none;align=center;verticalAlign=middle;whiteSpace=wrap;rounded=0;" vertex="1" parent="1">
          <mxGeometry x="400" y="520" width="60" height="30" as="geometry" />
        </mxCell>
        <mxCell id="NQqdmti2_ZRtqbnhM-zB-71" value="&amp;lt;&amp;lt;include&amp;gt;&amp;gt;" style="text;html=1;strokeColor=none;fillColor=none;align=center;verticalAlign=middle;whiteSpace=wrap;rounded=0;" vertex="1" parent="1">
          <mxGeometry x="400" y="590" width="60" height="30" as="geometry" />
        </mxCell>
        <mxCell id="NQqdmti2_ZRtqbnhM-zB-72" value="&amp;lt;&amp;lt;include&amp;gt;&amp;gt;" style="text;html=1;strokeColor=none;fillColor=none;align=center;verticalAlign=middle;whiteSpace=wrap;rounded=0;" vertex="1" parent="1">
          <mxGeometry x="550" y="330" width="60" height="30" as="geometry" />
        </mxCell>
        <mxCell id="NQqdmti2_ZRtqbnhM-zB-73" value="&amp;lt;&amp;lt;include&amp;gt;&amp;gt;" style="text;html=1;strokeColor=none;fillColor=none;align=center;verticalAlign=middle;whiteSpace=wrap;rounded=0;" vertex="1" parent="1">
          <mxGeometry x="540" y="485" width="60" height="30" as="geometry" />
        </mxCell>
        <mxCell id="NQqdmti2_ZRtqbnhM-zB-74" value="[Select PKCS Option]&lt;br&gt;&amp;lt;&amp;lt;extend&amp;gt;&amp;gt;&lt;br&gt;(#1 v1.5 functions)" style="text;html=1;strokeColor=none;fillColor=none;align=center;verticalAlign=middle;whiteSpace=wrap;rounded=0;" vertex="1" parent="1">
          <mxGeometry x="680" y="290" width="120" height="60" as="geometry" />
        </mxCell>
        <mxCell id="NQqdmti2_ZRtqbnhM-zB-75" value="[Select ANSI Option]&lt;br&gt;&amp;lt;&amp;lt;extend&amp;gt;&amp;gt;&lt;br&gt;(X9.31 rDSA functions)" style="text;html=1;strokeColor=none;fillColor=none;align=center;verticalAlign=middle;whiteSpace=wrap;rounded=0;" vertex="1" parent="1">
          <mxGeometry x="690" y="370" width="120" height="60" as="geometry" />
        </mxCell>
        <mxCell id="NQqdmti2_ZRtqbnhM-zB-76" value="[Select ISO/IEC Option]&lt;br&gt;&amp;lt;&amp;lt;extend&amp;gt;&amp;gt;&lt;br&gt;(9796-2 Scheme 1 functions)" style="text;html=1;strokeColor=none;fillColor=none;align=center;verticalAlign=middle;whiteSpace=wrap;rounded=0;" vertex="1" parent="1">
          <mxGeometry x="670" y="440" width="140" height="60" as="geometry" />
        </mxCell>
        <mxCell id="NQqdmti2_ZRtqbnhM-zB-77" value="File System" style="shape=umlActor;verticalLabelPosition=bottom;verticalAlign=top;html=1;outlineConnect=0;" vertex="1" parent="1">
          <mxGeometry x="1070" y="70" width="30" height="60" as="geometry" />
        </mxCell>
        <mxCell id="NQqdmti2_ZRtqbnhM-zB-78" value="Clipboard" style="shape=umlActor;verticalLabelPosition=bottom;verticalAlign=top;html=1;outlineConnect=0;" vertex="1" parent="1">
          <mxGeometry x="1070" y="160" width="30" height="60" as="geometry" />
        </mxCell>
        <mxCell id="NQqdmti2_ZRtqbnhM-zB-81" value="" style="endArrow=open;html=1;rounded=0;endFill=0;" edge="1" parent="1" target="NQqdmti2_ZRtqbnhM-zB-77">
          <mxGeometry width="50" height="50" relative="1" as="geometry">
            <mxPoint x="760" y="170" as="sourcePoint" />
            <mxPoint x="810" y="120" as="targetPoint" />
          </mxGeometry>
        </mxCell>
        <mxCell id="NQqdmti2_ZRtqbnhM-zB-82" value="" style="endArrow=open;html=1;rounded=0;endFill=0;exitX=1;exitY=0.5;exitDx=0;exitDy=0;" edge="1" parent="1" source="NQqdmti2_ZRtqbnhM-zB-26">
          <mxGeometry width="50" height="50" relative="1" as="geometry">
            <mxPoint x="770" y="180" as="sourcePoint" />
            <mxPoint x="1060" y="200" as="targetPoint" />
          </mxGeometry>
        </mxCell>
      </root>
    </mxGraphModel>
  </diagram>
</mxfile>
